<svg width="126" height="49" viewBox="0 0 126 49" fill="none" xmlns="http://www.w3.org/2000/svg">
<path fill-rule="evenodd" clip-rule="evenodd" d="M33 17.5C33 26.6128 25.6128 34 16.5 34C7.3873 34 0 26.6128 0 17.5C0 8.3873 7.3873 1 16.5 1C25.6128 1 33 8.3873 33 17.5ZM12.1 14.6889C13.6525 14.6889 14.9111 13.4303 14.9111 11.8778C14.9111 10.3253 13.6525 9.06667 12.1 9.06667C10.5475 9.06667 9.28885 10.3253 9.28885 11.8778C9.28885 13.4303 10.5475 14.6889 12.1 14.6889ZM20.9 14.6889C22.4525 14.6889 23.7111 13.4303 23.7111 11.8778C23.7111 10.3253 22.4525 9.06667 20.9 9.06667C19.3475 9.06667 18.0889 10.3253 18.0889 11.8778C18.0889 13.4303 19.3475 14.6889 20.9 14.6889ZM16.6222 23.2445C12.8422 23.2445 9.7778 20.1801 9.7778 16.4H6.84445C6.84445 21.8001 11.2222 26.1778 16.6222 26.1778C22.0224 26.1778 26.4 21.8001 26.4 16.4H23.4666C23.4666 20.1801 20.4024 23.2445 16.6222 23.2445Z" fill="#FAC231"/>
<path d="M56.56 6.32C55.7493 6.72533 54.5227 8.21867 52.88 10.8C51.2587 13.3813 49.84 15.856 48.624 18.224L46.768 21.808C43.7813 27.696 41.6587 31.3867 40.4 32.88C38.5013 35.0773 36.7733 36.176 35.216 36.176C34.7253 36.176 34.48 36.0907 34.48 35.92C34.48 35.856 34.5227 35.7707 34.608 35.664C34.6933 35.5787 34.7787 35.504 34.864 35.44L34.96 35.376C35.8987 34.672 37.136 33.1147 38.672 30.704C40.2293 28.3147 41.5413 26.096 42.608 24.048L44.208 21.008C45.4667 18.6827 46.672 16.6027 47.824 14.768C48.9973 12.9333 49.9573 11.536 50.704 10.576C51.4507 9.616 52.1013 8.82667 52.656 8.208C53.232 7.568 53.648 7.16267 53.904 6.992L54.288 6.736C54.352 6.672 54.384 6.608 54.384 6.544C54.384 6.33067 54.0427 6.224 53.36 6.224C52.72 6.224 52.08 6.40533 51.44 6.768C50.8213 7.10933 50.288 7.52533 49.84 8.016C49.4133 8.50667 49.0293 8.99733 48.688 9.488C48.3467 9.97867 48.0907 10.3947 47.92 10.736L47.664 11.28C47.5573 11.6213 47.4293 11.792 47.28 11.792C46.9173 11.792 46.736 11.3227 46.736 10.384C46.736 8.76267 47.44 7.52533 48.848 6.672C50.256 5.79733 51.9947 5.36 54.064 5.36C56.0693 5.36 57.072 5.54133 57.072 5.904C57.072 6.032 56.9013 6.17067 56.56 6.32ZM55.812 27.984C54.0413 29.6053 52.8253 30.416 52.164 30.416C51.8653 30.416 51.716 30.2453 51.716 29.904C51.716 29.4773 51.8973 28.8267 52.26 27.952C52.644 27.0773 53.028 26.3093 53.412 25.648L53.988 24.656C54.0733 24.5067 54.116 24.4107 54.116 24.368C54.116 24.3253 54.0947 24.304 54.052 24.304C53.9667 24.304 53.8067 24.4213 53.572 24.656C52.932 25.36 52.196 26.1173 51.364 26.928C50.5533 27.7173 49.892 28.336 49.38 28.784L48.644 29.424C47.812 30.064 47.172 30.384 46.724 30.384C46.2547 30.384 46.02 30.0213 46.02 29.296C46.02 28.9333 46.1267 28.3787 46.34 27.632C46.532 26.8853 46.6813 26.384 46.788 26.128C47.2787 24.9333 47.8867 23.7707 48.612 22.64C49.3587 21.5093 50.2333 20.432 51.236 19.408C52.2387 18.3627 53.4013 17.52 54.724 16.88C56.068 16.24 57.4547 15.92 58.884 15.92C60.0787 15.92 60.676 16.1013 60.676 16.464C60.676 16.6773 60.4093 16.784 59.876 16.784C57.9133 16.784 56.068 17.6267 54.34 19.312C52.6333 20.976 51.2467 22.896 50.18 25.072C49.8813 25.6693 49.732 26.1707 49.732 26.576C49.732 26.8107 49.8067 26.928 49.956 26.928C50.212 26.928 50.5427 26.7467 50.948 26.384C51.204 26.1493 51.5453 25.84 51.972 25.456C52.42 25.072 53.1347 24.336 54.116 23.248C55.0973 22.16 55.876 21.1467 56.452 20.208C56.5373 20.0373 56.6653 19.8347 56.836 19.6C57.028 19.3653 57.38 19.056 57.892 18.672C58.404 18.2667 58.916 18.064 59.428 18.064C59.7053 18.064 59.844 18.1387 59.844 18.288C59.844 18.3307 59.812 18.4053 59.748 18.512C59.6627 18.6827 59.4173 19.1093 59.012 19.792C58.628 20.4747 58.2653 21.1253 57.924 21.744C57.5827 22.3413 57.22 23.0027 56.836 23.728C56.452 24.432 56.1427 25.04 55.908 25.552C55.6947 26.064 55.588 26.4053 55.588 26.576C55.588 26.704 55.6413 26.768 55.748 26.768C56.068 26.768 56.8467 26.1493 58.084 24.912C59.0227 23.9307 60.1213 22.7253 61.38 21.296C61.444 21.232 61.4973 21.2 61.54 21.2C61.5827 21.2 61.604 21.2427 61.604 21.328C61.604 21.7333 61.444 22.128 61.124 22.512C59.0333 24.8373 57.2627 26.6613 55.812 27.984ZM65.2238 25.456L66.5677 22.832C66.5677 22.768 66.5464 22.736 66.5038 22.736C66.4611 22.736 66.4078 22.768 66.3438 22.832C65.5544 23.7493 64.7224 24.656 63.8478 25.552C62.9731 26.4267 62.3011 27.0773 61.8318 27.504L61.1278 28.144C59.5278 29.6587 58.3971 30.416 57.7357 30.416C57.4371 30.416 57.2878 30.224 57.2878 29.84C57.2878 29.4133 57.4584 28.7733 57.7997 27.92C58.1411 27.0453 58.4824 26.288 58.8238 25.648L59.3358 24.656C61.1278 21.3067 62.4504 19.0667 63.3038 17.936C63.7304 17.3813 64.2531 16.9227 64.8718 16.56C65.4904 16.176 65.9704 15.984 66.3118 15.984C66.5251 15.984 66.6318 16.0587 66.6318 16.208C66.6318 16.2933 66.5891 16.4107 66.5038 16.56C66.4611 16.6453 66.0238 17.36 65.1918 18.704C64.3598 20.0267 63.6878 21.168 63.1758 22.128C61.7678 24.7093 61.0638 26.192 61.0638 26.576C61.0638 26.7253 61.1278 26.8 61.2558 26.8C61.4478 26.8 61.7784 26.608 62.2478 26.224C63.6344 25.0293 65.1598 23.4187 66.8238 21.392C67.7411 20.4107 68.7011 19.1307 69.7038 17.552C69.9811 17.1253 70.3864 16.7627 70.9198 16.464C71.4744 16.144 71.9758 15.984 72.4238 15.984C72.6158 15.984 72.7118 16.0693 72.7118 16.24L72.4558 16.848C72.1571 17.3813 71.4851 18.5547 70.4398 20.368C69.4158 22.16 68.8398 23.1733 68.7118 23.408C68.5411 23.728 68.1464 24.4213 67.5278 25.488C66.9304 26.5333 66.5038 27.28 66.2478 27.728C67.5918 26.64 68.7011 25.7013 69.5758 24.912C70.5144 23.9307 71.6131 22.7253 72.8718 21.296C72.9358 21.232 72.9891 21.2 73.0318 21.2C73.0744 21.2 73.0958 21.2427 73.0958 21.328C73.0958 21.7333 72.9358 22.128 72.6158 22.512C71.6771 23.536 70.8664 24.4107 70.1838 25.136C69.2878 26.0747 67.6878 27.44 65.3838 29.232L64.5518 30.768C60.4344 38.3413 57.5971 43.2693 56.0397 45.552C55.8904 45.7867 55.6984 46.064 55.4637 46.384C55.2291 46.7253 54.8451 47.1733 54.3117 47.728C53.7784 48.304 53.3517 48.592 53.0317 48.592C52.5197 48.592 52.2637 47.856 52.2637 46.384C52.2637 44.208 53.0424 41.84 54.5997 39.28C56.2851 36.528 58.8877 33.7013 62.4078 30.8C63.1118 29.52 64.0504 27.7387 65.2238 25.456ZM55.3997 39.216C55.2291 39.472 55.0264 39.8027 54.7917 40.208C54.5571 40.6347 54.2371 41.3493 53.8317 42.352C53.4264 43.376 53.2237 44.2293 53.2237 44.912C53.2237 45.2747 53.2877 45.456 53.4157 45.456C53.5224 45.456 53.6824 45.3493 53.8957 45.136C54.1091 44.944 54.2904 44.7413 54.4397 44.528L54.6637 44.208C56.7757 40.9013 59.0691 36.9547 61.5438 32.368C58.7704 34.8 56.7224 37.0827 55.3997 39.216ZM84.4898 5.232C87.2631 5.232 89.4604 6.096 91.0818 7.824C92.7244 9.552 93.5458 11.8987 93.5458 14.864C93.5458 16.656 93.1084 18.5013 92.2338 20.4C91.3591 22.2773 90.1964 23.984 88.7458 25.52C87.2951 27.056 85.5244 28.3147 83.4338 29.296C81.3431 30.2773 79.1778 30.768 76.9378 30.768C76.5111 30.768 76.0951 30.7467 75.6898 30.704C75.2844 30.6827 74.9964 30.6613 74.8257 30.64L74.5378 30.576C74.1964 30.4907 74.0257 30.32 74.0257 30.064L74.1217 29.744C74.3351 29.232 74.6444 28.528 75.0497 27.632C75.4337 26.736 76.3404 24.976 77.7698 22.352C79.2204 19.728 80.7671 17.1893 82.4098 14.736C83.9458 12.432 85.1618 10.832 86.0578 9.936C86.3564 9.616 86.6018 9.456 86.7938 9.456C86.9431 9.456 87.0178 9.584 87.0178 9.84C87.0178 10.0107 87.0071 10.1173 86.9858 10.16C86.7938 10.992 86.1111 12.56 84.9378 14.864C81.0551 21.7333 78.6231 26.512 77.6418 29.2C77.6204 29.264 77.6098 29.3387 77.6098 29.424C77.6098 29.6373 77.6951 29.7547 77.8658 29.776C77.9938 29.7973 78.1858 29.808 78.4418 29.808C80.3191 29.808 82.2498 28.9013 84.2338 27.088C86.2391 25.2747 87.8924 23.0133 89.1938 20.304C90.4951 17.5733 91.1458 14.9813 91.1458 12.528C91.1458 10.736 90.6338 9.24266 89.6098 8.048C88.5858 6.832 87.1991 6.224 85.4498 6.224C84.5538 6.224 83.8071 6.46933 83.2098 6.96C82.6338 7.45067 82.3458 8.16533 82.3458 9.104C82.3458 9.85067 82.5698 10.6187 83.0178 11.408C83.0604 11.536 83.0818 11.664 83.0818 11.792C83.0818 11.9627 83.0178 12.048 82.8898 12.048C82.8258 12.048 82.7298 12.016 82.6018 11.952C82.1111 11.696 81.5671 11.1627 80.9698 10.352C80.3724 9.54133 80.0738 8.69867 80.0738 7.824C80.0738 7.14133 80.3298 6.59733 80.8418 6.192C81.3538 5.78667 81.9084 5.53067 82.5058 5.424C83.1031 5.296 83.7644 5.232 84.4898 5.232ZM95.0723 26.896C92.5763 29.2427 90.9763 30.416 90.2722 30.416C89.9096 30.416 89.7282 30.1707 89.7282 29.68C89.7282 29.1893 89.9202 28.4747 90.3042 27.536C90.6882 26.5973 91.0723 25.776 91.4563 25.072L92.0323 24.048C93.6536 21.2107 94.8803 19.1733 95.7123 17.936C96.0749 17.4027 96.5336 16.9547 97.0883 16.592C97.6643 16.208 98.1976 16.016 98.6883 16.016C98.8589 16.016 98.9443 16.0907 98.9443 16.24C98.9443 16.3467 98.8696 16.5493 98.7203 16.848C98.4643 17.3173 97.8349 18.4373 96.8323 20.208C95.8296 21.9787 95.2323 23.0453 95.0403 23.408C94.1656 24.944 93.7283 25.968 93.7283 26.48C93.7283 26.672 93.7923 26.768 93.9203 26.768C94.1336 26.768 94.8163 26.2347 95.9683 25.168C96.8643 24.272 98.0483 22.9813 99.5203 21.296C99.5843 21.232 99.6376 21.2 99.6803 21.2C99.7229 21.2 99.7443 21.2427 99.7443 21.328C99.7443 21.7333 99.5843 22.128 99.2643 22.512C97.6856 24.2613 96.2883 25.7227 95.0723 26.896ZM99.3283 14.192C98.7949 14.192 98.5283 13.872 98.5283 13.232C98.5283 12.6347 98.7523 12.0373 99.2003 11.44C99.6483 10.8213 100.139 10.512 100.672 10.512C101.312 10.512 101.632 10.8747 101.632 11.6C101.632 12.1973 101.387 12.784 100.896 13.36C100.406 13.9147 99.8829 14.192 99.3283 14.192ZM107.189 26.896C104.693 29.2427 103.05 30.416 102.261 30.416C101.898 30.416 101.717 30.224 101.717 29.84C101.717 29.6053 101.77 29.3173 101.877 28.976C101.983 28.6133 102.111 28.2613 102.261 27.92C102.431 27.5573 102.591 27.2267 102.741 26.928C102.89 26.6293 103.039 26.352 103.189 26.096C103.338 25.84 103.413 25.7013 103.413 25.68C103.733 25.104 104.213 24.304 104.853 23.28C105.493 22.2347 106.005 21.3813 106.389 20.72C106.773 20.0373 106.965 19.6213 106.965 19.472C106.965 19.3653 106.911 19.312 106.805 19.312L106.357 19.472C105.375 20.176 104.202 21.2747 102.837 22.768C101.471 24.24 100.351 25.5413 99.4768 26.672L98.1648 28.336C97.8874 28.7413 97.6421 29.072 97.4288 29.328C97.2154 29.584 96.9061 29.8293 96.5008 30.064C96.1167 30.32 95.7221 30.448 95.3167 30.448C95.0181 30.448 94.8687 30.3627 94.8687 30.192C94.8687 30.0213 95.0714 29.5307 95.4767 28.72C95.8821 27.888 96.2874 27.0987 96.6928 26.352L97.3008 25.264L100.437 19.76C100.757 19.2267 101.013 18.8213 101.205 18.544C101.418 18.2453 101.706 17.8827 102.069 17.456C102.431 17.008 102.815 16.6773 103.221 16.464C103.647 16.2507 104.095 16.1227 104.565 16.08C104.735 16.08 104.821 16.1547 104.821 16.304C104.821 16.432 104.789 16.5387 104.725 16.624C104.234 17.392 103.477 18.6613 102.453 20.432C101.45 22.2027 100.81 23.3547 100.533 23.888C100.469 24.016 100.437 24.112 100.437 24.176C100.437 24.2187 100.458 24.24 100.501 24.24C100.543 24.24 100.65 24.176 100.821 24.048C101.226 23.5787 101.749 22.992 102.389 22.288C103.05 21.584 104.159 20.528 105.717 19.12C107.274 17.6907 108.554 16.7307 109.557 16.24C109.791 16.1333 110.015 16.08 110.229 16.08C110.527 16.08 110.677 16.2507 110.677 16.592C110.506 17.5947 109.685 19.312 108.213 21.744C106.591 24.4107 105.781 25.9893 105.781 26.48C105.781 26.6507 105.855 26.736 106.005 26.736C106.111 26.736 106.229 26.704 106.357 26.64C106.506 26.5547 106.666 26.448 106.837 26.32C107.007 26.1707 107.146 26.0427 107.253 25.936C107.381 25.8293 107.541 25.6907 107.733 25.52C107.925 25.328 108.042 25.2107 108.085 25.168C108.981 24.272 110.165 22.9813 111.637 21.296C111.701 21.232 111.754 21.2 111.797 21.2C111.839 21.2 111.861 21.2427 111.861 21.328C111.861 21.7333 111.701 22.128 111.381 22.512C109.802 24.2613 108.405 25.7227 107.189 26.896ZM120.114 25.168C121.01 24.272 122.194 22.9813 123.666 21.296C123.73 21.232 123.783 21.2 123.826 21.2C123.868 21.2 123.89 21.2427 123.89 21.328C123.89 21.7333 123.73 22.128 123.41 22.512C121.831 24.2613 120.434 25.7227 119.218 26.896C116.658 29.264 114.972 30.448 114.162 30.448C113.842 30.448 113.682 30.2453 113.682 29.84C113.682 29.072 114.119 27.9093 114.994 26.352C115.868 24.7733 116.732 23.312 117.586 21.968C118.46 20.6027 118.898 19.8027 118.898 19.568C118.898 19.44 118.834 19.376 118.706 19.376C118.194 19.376 117.223 20.1653 115.794 21.744C114.364 23.3227 113.159 24.7413 112.178 26C111.09 27.3653 110.14 28.4533 109.33 29.264C108.54 30.0747 108.018 30.5333 107.762 30.64L107.346 30.832C107.154 30.832 107.058 30.7253 107.058 30.512C107.058 30.1707 107.25 29.5627 107.634 28.688C108.018 27.8133 108.402 27.024 108.786 26.32L109.362 25.264L114.354 16.304C118.279 9.37067 121.372 4.44267 123.634 1.52C124.274 0.666665 124.722 0.239998 124.978 0.239998C125.106 0.239998 125.17 0.325331 125.17 0.495998C125.17 0.943999 124.828 1.86133 124.146 3.248C120.796 9.28533 118.471 13.4667 117.17 15.792C116.38 17.2 115.666 18.4587 115.026 19.568C114.386 20.656 113.927 21.424 113.65 21.872C113.394 22.32 113.17 22.7147 112.978 23.056C112.786 23.376 112.636 23.6533 112.53 23.888C112.508 23.952 112.498 24.016 112.498 24.08C112.498 24.1867 112.519 24.24 112.562 24.24C112.604 24.24 112.69 24.176 112.818 24.048C117.596 18.736 120.732 16.08 122.226 16.08C122.524 16.08 122.674 16.2293 122.674 16.528C122.674 16.6133 122.631 16.8053 122.546 17.104C122.46 17.3813 122.215 17.9573 121.81 18.832C121.404 19.7067 120.871 20.6773 120.21 21.744C119.804 22.3413 119.292 23.1947 118.674 24.304C118.055 25.4133 117.746 26.1387 117.746 26.48C117.746 26.672 117.842 26.768 118.034 26.768C118.098 26.768 118.183 26.7467 118.29 26.704C118.418 26.64 118.556 26.544 118.706 26.416C118.855 26.288 118.983 26.1707 119.09 26.064C119.218 25.9573 119.388 25.808 119.602 25.616C119.836 25.4027 120.007 25.2533 120.114 25.168Z" fill="white"/>
</svg>
